<svg width="126" height="132" viewBox="0 0 126 132" fill="none" xmlns="http://www.w3.org/2000/svg">
<g id="Group 11">
<g id="Ellipse 14" filter="url(#filter0_ddi_190_9234)">
<circle cx="60" cy="36" r="36" fill="#2F80ED"/>
</g>
<path id="Vector" d="M48.48 44.4764V40.2873C48.48 39.6938 48.6852 39.1964 49.0958 38.7949C49.5063 38.3935 49.9992 38.1927 50.5745 38.1927H54.0043C54.3534 38.1927 54.6851 38.28 54.9993 38.4545C55.3134 38.6291 55.5665 38.8647 55.7585 39.1615C56.2647 39.8422 56.8889 40.3745 57.631 40.7585C58.3732 41.1425 59.1629 41.3345 60 41.3345C60.8553 41.3345 61.654 41.1425 62.3961 40.7585C63.1383 40.3745 63.7534 39.8422 64.2414 39.1615C64.4683 38.8647 64.7347 38.6291 65.0405 38.4545C65.3463 38.28 65.6647 38.1927 65.9956 38.1927H69.4254C70.0189 38.1927 70.5163 38.3935 70.9178 38.7949C71.3193 39.1964 71.52 39.6938 71.52 40.2873V44.4764H64.1891V42.0938C63.5782 42.5302 62.9191 42.8618 62.2118 43.0887C61.5046 43.3156 60.7673 43.4291 60 43.4291C59.2494 43.4291 58.5163 43.3111 57.8007 43.0751C57.0851 42.8391 56.4218 42.5033 55.8109 42.0676V44.4764H48.48ZM60 40.2873C59.3367 40.2873 58.7083 40.1344 58.1149 39.8286C57.5214 39.5228 57.024 39.0997 56.6225 38.5593C56.3258 38.1229 55.9547 37.7784 55.5093 37.5256C55.0638 37.2729 54.5796 37.1462 54.0567 37.1455C54.4407 36.4996 55.2523 35.9889 56.4916 35.6133C57.7309 35.2377 58.9003 35.0502 60 35.0509C61.0996 35.0509 62.2691 35.2384 63.5083 35.6133C64.7476 35.9882 65.5593 36.4989 65.9433 37.1455C65.4371 37.1455 64.9571 37.2722 64.5033 37.5256C64.0494 37.7791 63.6742 38.1236 63.3774 38.5593C62.9934 39.1178 62.5047 39.5455 61.9113 39.8422C61.3178 40.1389 60.6807 40.2873 60 40.2873ZM51.6218 37.1455C50.7491 37.1455 50.0073 36.84 49.3963 36.2291C48.7854 35.6182 48.48 34.8764 48.48 34.0036C48.48 33.1135 48.7854 32.3671 49.3963 31.7646C50.0073 31.162 50.7491 30.8611 51.6218 30.8618C52.512 30.8618 53.2583 31.1631 53.8609 31.7656C54.4634 32.3681 54.7643 33.1142 54.7636 34.0036C54.7636 34.8764 54.4624 35.6182 53.8598 36.2291C53.2573 36.84 52.5113 37.1455 51.6218 37.1455ZM68.3782 37.1455C67.5054 37.1455 66.7636 36.84 66.1527 36.2291C65.5418 35.6182 65.2363 34.8764 65.2363 34.0036C65.2363 33.1135 65.5418 32.3671 66.1527 31.7646C66.7636 31.162 67.5054 30.8611 68.3782 30.8618C69.2683 30.8618 70.0147 31.1631 70.6172 31.7656C71.2198 32.3681 71.5207 33.1142 71.52 34.0036C71.52 34.8764 71.2187 35.6182 70.6162 36.2291C70.0137 36.84 69.2676 37.1455 68.3782 37.1455ZM60 34.0036C59.1273 34.0036 58.3854 33.6982 57.7745 33.0873C57.1636 32.4764 56.8582 31.7345 56.8582 30.8618C56.8582 29.9716 57.1636 29.2253 57.7745 28.6228C58.3854 28.0202 59.1273 27.7193 60 27.72C60.8902 27.72 61.6365 28.0213 62.239 28.6238C62.8416 29.2263 63.1425 29.9723 63.1418 30.8618C63.1418 31.7345 62.8405 32.4764 62.238 33.0873C61.6355 33.6982 60.8895 34.0036 60 34.0036Z" fill="white"/>
</g>
<defs>
<filter id="filter0_ddi_190_9234" x="-6" y="0" width="132" height="132" filterUnits="userSpaceOnUse" color-interpolation-filters="sRGB">
<feFlood flood-opacity="0" result="BackgroundImageFix"/>
<feColorMatrix in="SourceAlpha" type="matrix" values="0 0 0 0 0 0 0 0 0 0 0 0 0 0 0 0 0 0 127 0" result="hardAlpha"/>
<feOffset dy="30"/>
<feGaussianBlur stdDeviation="15"/>
<feComposite in2="hardAlpha" operator="out"/>
<feColorMatrix type="matrix" values="0 0 0 0 0.184314 0 0 0 0 0.501961 0 0 0 0 0.929412 0 0 0 0.1 0"/>
<feBlend mode="normal" in2="BackgroundImageFix" result="effect1_dropShadow_190_9234"/>
<feColorMatrix in="SourceAlpha" type="matrix" values="0 0 0 0 0 0 0 0 0 0 0 0 0 0 0 0 0 0 127 0" result="hardAlpha"/>
<feOffset dy="30"/>
<feGaussianBlur stdDeviation="15"/>
<feComposite in2="hardAlpha" operator="out"/>
<feColorMatrix type="matrix" values="0 0 0 0 0.184314 0 0 0 0 0.501961 0 0 0 0 0.929412 0 0 0 0.15 0"/>
<feBlend mode="normal" in2="effect1_dropShadow_190_9234" result="effect2_dropShadow_190_9234"/>
<feBlend mode="normal" in="SourceGraphic" in2="effect2_dropShadow_190_9234" result="shape"/>
<feColorMatrix in="SourceAlpha" type="matrix" values="0 0 0 0 0 0 0 0 0 0 0 0 0 0 0 0 0 0 127 0" result="hardAlpha"/>
<feOffset dy="6"/>
<feGaussianBlur stdDeviation="2"/>
<feComposite in2="hardAlpha" operator="arithmetic" k2="-1" k3="1"/>
<feColorMatrix type="matrix" values="0 0 0 0 0 0 0 0 0 0 0 0 0 0 0 0 0 0 0.25 0"/>
<feBlend mode="normal" in2="shape" result="effect3_innerShadow_190_9234"/>
</filter>
</defs>
</svg>
