<svg width="32" height="31" viewBox="0 0 32 31" fill="none" xmlns="http://www.w3.org/2000/svg">
<g id="Logo 1">
<path id="Vector" d="M12.8 0H19.2C20.0487 0 20.8626 0.337142 21.4627 0.937258C22.0629 1.53737 22.4 2.35131 22.4 3.2V6.4H28.8C29.6487 6.4 30.4626 6.73714 31.0627 7.33726C31.6629 7.93737 32 8.75131 32 9.6V27.2C32 28.0487 31.6629 28.8626 31.0627 29.4627C30.4626 30.0629 29.6487 30.4 28.8 30.4H3.2C2.35131 30.4 1.53737 30.0629 0.937258 29.4627C0.337142 28.8626 0 28.0487 0 27.2V9.6C0 7.824 1.424 6.4 3.2 6.4H9.6V3.2C9.6 1.424 11.024 0 12.8 0ZM19.2 6.4V3.2H12.8V6.4H19.2Z" fill="#2F80ED"/>
<path id="Vector_2" d="M14.3999 11.2L6.3999 15.5636L14.3999 19.9273L20.9454 16.3564V21.3818H22.3999V15.5636M9.30899 18.6036V21.5127L14.3999 24.2909L19.4908 21.5127V18.6036L14.3999 21.3818L9.30899 18.6036Z" fill="white"/>
</g>
</svg>
