<svg width="146" height="38" viewBox="0 0 146 38" fill="none" xmlns="http://www.w3.org/2000/svg">
<path d="M16 0H24C25.0609 0 26.0783 0.421427 26.8284 1.17157C27.5786 1.92172 28 2.93913 28 4V8H36C37.0609 8 38.0783 8.42143 38.8284 9.17157C39.5786 9.92172 40 10.9391 40 12V34C40 35.0609 39.5786 36.0783 38.8284 36.8284C38.0783 37.5786 37.0609 38 36 38H4C2.93913 38 1.92172 37.5786 1.17157 36.8284C0.421427 36.0783 0 35.0609 0 34V12C0 9.78 1.78 8 4 8H12V4C12 1.78 13.78 0 16 0ZM24 8V4H16V8H24Z" fill="#2F80ED"/>
<path d="M18 14L8 19.4545L18 24.9091L26.1818 20.4455V26.7273H28V19.4545M11.6364 23.2545V26.8909L18 30.3636L24.3636 26.8909V23.2545L18 26.7273L11.6364 23.2545Z" fill="white"/>
<path d="M52.31 27H49.61V12.54H52.31V27ZM57.3113 18C57.5179 17.7933 57.7346 17.6033 57.9613 17.43C58.1946 17.25 58.4379 17.1 58.6913 16.98C58.9513 16.8533 59.2279 16.7567 59.5213 16.69C59.8146 16.6167 60.1346 16.58 60.4813 16.58C61.0413 16.58 61.5379 16.6767 61.9713 16.87C62.4046 17.0567 62.7646 17.3233 63.0513 17.67C63.3446 18.01 63.5646 18.42 63.7113 18.9C63.8646 19.3733 63.9413 19.8967 63.9413 20.47V27H61.4713V20.47C61.4713 19.8433 61.3279 19.36 61.0413 19.02C60.7546 18.6733 60.3179 18.5 59.7313 18.5C59.3046 18.5 58.9046 18.5967 58.5313 18.79C58.1579 18.9833 57.8046 19.2467 57.4713 19.58V27H55.0013V16.74H56.5113C56.8313 16.74 57.0413 16.89 57.1413 17.19L57.3113 18ZM69.5736 27.16C68.6803 27.16 67.9936 26.91 67.5136 26.41C67.0403 25.9033 66.8036 25.2067 66.8036 24.32V18.59H65.7536C65.6203 18.59 65.5069 18.5467 65.4136 18.46C65.3203 18.3733 65.2736 18.2433 65.2736 18.07V17.09L66.9236 16.82L67.4436 14.02C67.4769 13.8867 67.5403 13.7833 67.6336 13.71C67.7269 13.6367 67.8469 13.6 67.9936 13.6H69.2736V16.83H72.0136V18.59H69.2736V24.15C69.2736 24.47 69.3503 24.72 69.5036 24.9C69.6636 25.08 69.8803 25.17 70.1536 25.17C70.3069 25.17 70.4336 25.1533 70.5336 25.12C70.6403 25.08 70.7303 25.04 70.8036 25C70.8836 24.96 70.9536 24.9233 71.0136 24.89C71.0736 24.85 71.1336 24.83 71.1936 24.83C71.2669 24.83 71.3269 24.85 71.3736 24.89C71.4203 24.9233 71.4703 24.9767 71.5236 25.05L72.2636 26.25C71.9036 26.55 71.4903 26.7767 71.0236 26.93C70.5569 27.0833 70.0736 27.16 69.5736 27.16ZM80.1269 20.69C80.1269 20.37 80.0802 20.07 79.9869 19.79C79.9002 19.5033 79.7669 19.2533 79.5869 19.04C79.4069 18.8267 79.1769 18.66 78.8969 18.54C78.6235 18.4133 78.3035 18.35 77.9369 18.35C77.2235 18.35 76.6602 18.5533 76.2469 18.96C75.8402 19.3667 75.5802 19.9433 75.4669 20.69H80.1269ZM75.4169 22.18C75.4569 22.7067 75.5502 23.1633 75.6969 23.55C75.8435 23.93 76.0369 24.2467 76.2769 24.5C76.5169 24.7467 76.8002 24.9333 77.1269 25.06C77.4602 25.18 77.8269 25.24 78.2269 25.24C78.6269 25.24 78.9702 25.1933 79.2569 25.1C79.5502 25.0067 79.8035 24.9033 80.0169 24.79C80.2369 24.6767 80.4269 24.5733 80.5869 24.48C80.7535 24.3867 80.9135 24.34 81.0669 24.34C81.2735 24.34 81.4269 24.4167 81.5269 24.57L82.2369 25.47C81.9635 25.79 81.6569 26.06 81.3169 26.28C80.9769 26.4933 80.6202 26.6667 80.2469 26.8C79.8802 26.9267 79.5035 27.0167 79.1169 27.07C78.7369 27.1233 78.3669 27.15 78.0069 27.15C77.2935 27.15 76.6302 27.0333 76.0169 26.8C75.4035 26.56 74.8702 26.21 74.4169 25.75C73.9635 25.2833 73.6069 24.71 73.3469 24.03C73.0869 23.3433 72.9569 22.55 72.9569 21.65C72.9569 20.95 73.0702 20.2933 73.2969 19.68C73.5235 19.06 73.8469 18.5233 74.2669 18.07C74.6935 17.61 75.2102 17.2467 75.8169 16.98C76.4302 16.7133 77.1202 16.58 77.8869 16.58C78.5335 16.58 79.1302 16.6833 79.6769 16.89C80.2235 17.0967 80.6935 17.4 81.0869 17.8C81.4802 18.1933 81.7869 18.68 82.0069 19.26C82.2335 19.8333 82.3469 20.49 82.3469 21.23C82.3469 21.6033 82.3069 21.8567 82.2269 21.99C82.1469 22.1167 81.9935 22.18 81.7669 22.18H75.4169ZM86.5305 18.52C86.8505 17.9067 87.2305 17.4267 87.6705 17.08C88.1105 16.7267 88.6305 16.55 89.2305 16.55C89.7038 16.55 90.0838 16.6533 90.3705 16.86L90.2105 18.71C90.1771 18.83 90.1271 18.9167 90.0605 18.97C90.0005 19.0167 89.9171 19.04 89.8105 19.04C89.7105 19.04 89.5605 19.0233 89.3605 18.99C89.1671 18.9567 88.9771 18.94 88.7905 18.94C88.5171 18.94 88.2738 18.98 88.0605 19.06C87.8471 19.14 87.6538 19.2567 87.4805 19.41C87.3138 19.5567 87.1638 19.7367 87.0305 19.95C86.9038 20.1633 86.7838 20.4067 86.6705 20.68V27H84.2005V16.74H85.6505C85.9038 16.74 86.0805 16.7867 86.1805 16.88C86.2805 16.9667 86.3471 17.1267 86.3805 17.36L86.5305 18.52ZM93.9714 18C94.1781 17.7933 94.3947 17.6033 94.6214 17.43C94.8547 17.25 95.0981 17.1 95.3514 16.98C95.6114 16.8533 95.8881 16.7567 96.1814 16.69C96.4747 16.6167 96.7947 16.58 97.1414 16.58C97.7014 16.58 98.1981 16.6767 98.6314 16.87C99.0647 17.0567 99.4247 17.3233 99.7114 17.67C100.005 18.01 100.225 18.42 100.371 18.9C100.525 19.3733 100.601 19.8967 100.601 20.47V27H98.1314V20.47C98.1314 19.8433 97.9881 19.36 97.7014 19.02C97.4147 18.6733 96.9781 18.5 96.3914 18.5C95.9647 18.5 95.5647 18.5967 95.1914 18.79C94.8181 18.9833 94.4647 19.2467 94.1314 19.58V27H91.6614V16.74H93.1714C93.4914 16.74 93.7014 16.89 93.8014 17.19L93.9714 18ZM114.344 12.54L108.504 27H106.074L100.234 12.54H102.394C102.627 12.54 102.817 12.5967 102.964 12.71C103.11 12.8233 103.22 12.97 103.294 13.15L106.704 21.97C106.817 22.2567 106.924 22.5733 107.024 22.92C107.13 23.26 107.23 23.6167 107.324 23.99C107.404 23.6167 107.49 23.26 107.584 22.92C107.677 22.5733 107.78 22.2567 107.894 21.97L111.284 13.15C111.337 12.9967 111.44 12.8567 111.594 12.73C111.754 12.6033 111.947 12.54 112.174 12.54H114.344ZM118.01 16.74V27H115.53V16.74H118.01ZM118.35 13.75C118.35 13.9633 118.307 14.1633 118.22 14.35C118.134 14.5367 118.017 14.7 117.87 14.84C117.73 14.98 117.564 15.0933 117.37 15.18C117.177 15.26 116.97 15.3 116.75 15.3C116.537 15.3 116.334 15.26 116.14 15.18C115.954 15.0933 115.79 14.98 115.65 14.84C115.51 14.7 115.397 14.5367 115.31 14.35C115.23 14.1633 115.19 13.9633 115.19 13.75C115.19 13.53 115.23 13.3233 115.31 13.13C115.397 12.9367 115.51 12.77 115.65 12.63C115.79 12.49 115.954 12.38 116.14 12.3C116.334 12.2133 116.537 12.17 116.75 12.17C116.97 12.17 117.177 12.2133 117.37 12.3C117.564 12.38 117.73 12.49 117.87 12.63C118.017 12.77 118.134 12.9367 118.22 13.13C118.307 13.3233 118.35 13.53 118.35 13.75ZM127.139 20.69C127.139 20.37 127.092 20.07 126.999 19.79C126.912 19.5033 126.779 19.2533 126.599 19.04C126.419 18.8267 126.189 18.66 125.909 18.54C125.635 18.4133 125.315 18.35 124.949 18.35C124.235 18.35 123.672 18.5533 123.259 18.96C122.852 19.3667 122.592 19.9433 122.479 20.69H127.139ZM122.429 22.18C122.469 22.7067 122.562 23.1633 122.709 23.55C122.855 23.93 123.049 24.2467 123.289 24.5C123.529 24.7467 123.812 24.9333 124.139 25.06C124.472 25.18 124.839 25.24 125.239 25.24C125.639 25.24 125.982 25.1933 126.269 25.1C126.562 25.0067 126.815 24.9033 127.029 24.79C127.249 24.6767 127.439 24.5733 127.599 24.48C127.765 24.3867 127.925 24.34 128.079 24.34C128.285 24.34 128.439 24.4167 128.539 24.57L129.249 25.47C128.975 25.79 128.669 26.06 128.329 26.28C127.989 26.4933 127.632 26.6667 127.259 26.8C126.892 26.9267 126.515 27.0167 126.129 27.07C125.749 27.1233 125.379 27.15 125.019 27.15C124.305 27.15 123.642 27.0333 123.029 26.8C122.415 26.56 121.882 26.21 121.429 25.75C120.975 25.2833 120.619 24.71 120.359 24.03C120.099 23.3433 119.969 22.55 119.969 21.65C119.969 20.95 120.082 20.2933 120.309 19.68C120.535 19.06 120.859 18.5233 121.279 18.07C121.705 17.61 122.222 17.2467 122.829 16.98C123.442 16.7133 124.132 16.58 124.899 16.58C125.545 16.58 126.142 16.6833 126.689 16.89C127.235 17.0967 127.705 17.4 128.099 17.8C128.492 18.1933 128.799 18.68 129.019 19.26C129.245 19.8333 129.359 20.49 129.359 21.23C129.359 21.6033 129.319 21.8567 129.239 21.99C129.159 22.1167 129.005 22.18 128.779 22.18H122.429ZM145.725 16.74L142.465 27H140.485C140.259 27 140.102 26.8533 140.015 26.56L138.175 20.63C138.115 20.43 138.059 20.2333 138.005 20.04C137.959 19.84 137.919 19.64 137.885 19.44C137.845 19.64 137.799 19.8433 137.745 20.05C137.699 20.25 137.645 20.45 137.585 20.65L135.715 26.56C135.635 26.8533 135.459 27 135.185 27H133.285L130.035 16.74H132.005C132.185 16.74 132.339 16.7833 132.465 16.87C132.592 16.9567 132.675 17.0667 132.715 17.2L134.185 22.68C134.259 22.98 134.322 23.2733 134.375 23.56C134.435 23.8467 134.485 24.1333 134.525 24.42C134.599 24.1333 134.675 23.8467 134.755 23.56C134.842 23.2733 134.932 22.98 135.025 22.68L136.725 17.18C136.765 17.0467 136.842 16.9367 136.955 16.85C137.075 16.7633 137.219 16.72 137.385 16.72H138.475C138.649 16.72 138.795 16.7633 138.915 16.85C139.042 16.9367 139.125 17.0467 139.165 17.18L140.815 22.68C140.902 22.98 140.982 23.2767 141.055 23.57C141.135 23.8567 141.212 24.1433 141.285 24.43C141.372 23.8633 141.495 23.28 141.655 22.68L143.165 17.2C143.212 17.0667 143.295 16.9567 143.415 16.87C143.535 16.7833 143.679 16.74 143.845 16.74H145.725Z" fill="#2F80ED"/>
</svg>
