<svg width="118" height="29" viewBox="0 0 118 29" fill="none" xmlns="http://www.w3.org/2000/svg">
<path d="M36.4945 11.3428C37.0451 10.2905 37.8398 9.52466 38.8809 9.04516C39.9221 8.56566 41.3517 8.32812 43.1698 8.32812V12.637C41.1586 12.7569 39.5913 13.0255 38.468 13.445C37.3425 13.8646 36.5056 14.5461 35.9551 15.4918C35.4045 16.4375 35.0938 17.7828 35.0227 19.5298V27.1775H29.9258V8.65001H34.8806L35.0249 15.7582H35.2403C35.5266 13.8668 35.9462 12.395 36.4967 11.3428H36.4945Z" fill="#050505"/>
<path d="M47.8294 18.9518C47.8538 20.4836 48.3311 21.6912 49.2657 22.577C50.1981 23.4627 51.3946 23.9045 52.8553 23.9045C54.003 23.9045 54.9798 23.6114 55.7812 23.0254C56.5826 22.4393 57.1042 21.6801 57.3418 20.7455H61.7927C61.6018 22.2529 61.0513 23.5337 60.1411 24.586C59.2309 25.6382 58.1298 26.4285 56.8378 26.9546C55.5459 27.4808 54.2183 27.7449 52.8531 27.7449C49.7896 27.7449 47.3721 26.8836 45.6006 25.1609C43.8291 23.4383 42.9434 20.9964 42.9434 17.8374C42.9434 15.8994 43.3385 14.1879 44.1288 12.705C44.9191 11.2221 46.0313 10.0788 47.4676 9.27742C48.9038 8.47602 50.591 8.07422 52.529 8.07422C54.467 8.07422 56.1186 8.49378 57.5549 9.33069C58.9912 10.1676 60.0856 11.2998 60.8404 12.7227C61.5951 14.1479 61.9703 15.7329 61.9703 17.48V18.9518H47.8272H47.8294ZM47.8294 16.188H56.9488C56.8534 14.8472 56.3916 13.8016 55.5658 13.0468C54.74 12.2921 53.6922 11.9169 52.4246 11.9169C51.1571 11.9169 50.0671 12.2876 49.2302 13.0291C48.3933 13.7705 47.9249 14.825 47.8294 16.188Z" fill="#050505"/>
<path d="M67.5052 18.9518C67.5296 20.4836 68.0069 21.6912 68.9415 22.577C69.8738 23.4627 71.0704 23.9045 72.5311 23.9045C73.6788 23.9045 74.6556 23.6114 75.4569 23.0254C76.2583 22.4393 76.78 21.6801 77.0175 20.7455H81.4685C81.2776 22.2529 80.727 23.5337 79.8169 24.586C78.9067 25.6382 77.8056 26.4285 76.5136 26.9546C75.2216 27.4808 73.8941 27.7449 72.5289 27.7449C69.4654 27.7449 67.0479 26.8836 65.2764 25.1609C63.5049 23.4383 62.6191 20.9964 62.6191 17.8374C62.6191 15.8994 63.0143 14.1879 63.8046 12.705C64.5949 11.2221 65.7071 10.0788 67.1433 9.27742C68.5796 8.47602 70.2668 8.07422 72.2048 8.07422C74.1427 8.07422 75.7944 8.49378 77.2307 9.33069C78.6669 10.1676 79.7614 11.2998 80.5161 12.7227C81.2709 14.1479 81.6461 15.7329 81.6461 17.48V18.9518H67.503H67.5052ZM67.5052 16.188H76.6246C76.5292 14.8472 76.0674 13.8016 75.2416 13.0468C74.4158 12.2921 73.368 11.9169 72.1004 11.9169C70.8328 11.9169 69.7429 12.2876 68.906 13.0291C68.069 13.7705 67.6006 14.825 67.5052 16.188Z" fill="#050505"/>
<path d="M83.2012 2.04688H88.2981V27.1764H83.2012V2.04688Z" fill="#050505"/>
<path d="M90.3242 3.22913C90.3242 2.41442 90.6172 1.71515 91.2033 1.12909C91.7894 0.54303 92.4886 0.25 93.3033 0.25C94.1181 0.25 94.8529 0.53637 95.4389 1.11133C96.025 1.68629 96.318 2.39222 96.318 3.22913C96.318 4.06604 96.025 4.73646 95.4389 5.31142C94.8529 5.88638 94.1403 6.17275 93.3033 6.17275C92.4664 6.17275 91.7894 5.88638 91.2033 5.31142C90.6172 4.73646 90.3242 4.04384 90.3242 3.22913ZM90.7904 8.65018H95.8873V27.1732H90.7904V8.65018Z" fill="#050505"/>
<path d="M116.422 11.3775C117.043 12.4541 117.356 13.735 117.356 15.2179V27.1722H112.224V16.7608C112.224 15.2779 111.853 14.1279 111.112 13.3155C110.37 12.5007 109.34 12.0945 108.024 12.0945C106.612 12.0945 105.504 12.5673 104.703 13.513C103.901 14.4587 103.5 15.7796 103.5 17.48V27.1722H98.3672V8.64918H103.322L103.502 14.2856H103.717C103.981 12.3942 104.752 10.8869 106.033 9.76136C107.313 8.63586 108.803 8.07422 110.501 8.07422C111.747 8.07422 112.888 8.35615 113.929 8.91779C114.97 9.47943 115.802 10.3008 116.424 11.3775H116.422Z" fill="#050505"/>
<path d="M12.5359 28.2495C19.4593 28.2495 25.0718 22.637 25.0718 15.7136C25.0718 8.79025 19.4593 3.17773 12.5359 3.17773C5.61251 3.17773 0 8.79025 0 15.7136C0 22.637 5.61251 28.2495 12.5359 28.2495Z" fill="#050505"/>
<path fill-rule="evenodd" clip-rule="evenodd" d="M11.6137 11.8574H17.4277V15.7134H14.4953V22.2425H8.73242V14.8302H11.6137V11.8574Z" fill="#CFDBE3"/>
</svg>
