<svg  viewBox="0 0 167 166" fill="none" xmlns="http://www.w3.org/2000/svg">
<g clip-path="url(#clip0_2068_60819)">
<circle cx="83.5" cy="83" r="83" fill="#CFDBE3"/>
<path d="M78.4264 29C43.6519 29 10.5 57.5 14.5006 99L27.5006 91.9649H141.391C141.391 57.1904 113.201 29 78.4264 29Z" fill="#D5FD89"/>
<path d="M90.129 29C55.3544 29 27.1641 57.1904 27.1641 91.9649H153.094C153.094 57.1904 124.904 29 90.129 29Z" fill="#2B2E2F"/>
<path d="M154 99.1152L153.999 171.999L27.1842 171.999L27.1842 99.1152L154 99.1152Z" fill="#D5FD89"/>
<path d="M27.582 99.2246L27.582 171.826L15.4619 171.826L15.4619 109.225L27.582 99.2246Z" fill="#2B2E2F"/>
<rect x="79.5273" y="127.914" width="10.6482" height="31.3285" fill="#2B2E2F"/>
<circle cx="84.8944" cy="131.258" r="9.24013" fill="#2B2E2F"/>
<path d="M89.9649 50C65.1315 50 45 70.1315 45 94.9649H134.93C134.93 70.1315 114.798 50 89.9649 50Z" fill="#CFDBE3"/>
</g>
<defs>
<clipPath id="clip0_2068_60819">
<rect x="0.5" width="166" height="166" rx="83" fill="white"/>
</clipPath>
</defs>
</svg>
